{"title":"Crazy.About.Ya.2010.DVDRip.XviD-EXViD","uid":6323692,"size":1482469941,"categoryP":"video","categoryS":"movies","magnet":"?xt=urn:btih:afaa1a3dd891ea6b05c454ec5a85a3bc4020d8e3&amp;dn=Crazy.About.Ya.2010.DVDRip.XviD-EXViD&amp;tr=udp%3A%2F%2Ftracker.openbittorrent.com%3A80&amp;tr=udp%3A%2F%2Fopen.demonii.com%3A1337&amp;tr=udp%3A%2F%2Ftracker.coppersurfer.tk%3A6969&amp;tr=udp%3A%2F%2Fexodus.desync.com%3A6969","seeders":0,"leechers":1,"uploader":"TvTeam","files":8,"time":1303038272,"description":". \n  &lt;a href=&quot;\nhttp://www.torrenting.com/&quot; rel=&quot;nofollow&quot; target=&quot;_NEW&quot;&gt;\nhttp://www.torrenting.com/&lt;/a&gt;        :     Greatest Movie Tracker on The Net!!!\n &lt;a href=&quot;\nhttp://www.Torrenting.com&quot; rel=&quot;nofollow&quot; target=&quot;_NEW&quot;&gt;\nhttp://www.Torrenting.com&lt;/a&gt;          :     Once &amp; For all ;)\n\n\n               www . Torrenting . Com \n\n(((((((((((((= Enjoy No RAR releases =))))))))))))))))))))\n\n\n...................................NFO:....................................\n\n.                                                                                                     \n       \n     \n     \n       \n       \n     \n     \n                                         \n                                         \n                EXVID                    \n                                         \n         \n                                         \n         Filled the Archives             \n                                         \n         \n                                         \n                With:                    \n                                         \n         \n                                         \n                                    \n     E240                           \n                                    \n     SP               (C) 2009      \n                                         \n     \n     \n     \n                                                                                  \n                                                                                   \n                 Crazy.About.Ya.2010.DVDRip.XviD-EXViD                              \n                                                                                   \n                                                                                  \n     \n                                                                                               \nEXViD aims to iNTERNAL those releases which have been lost in the archives.\nEXViD aims to PRE non-internal releases which have poor sources and are likely skipped by others.\n &lt;a href=&quot;\nhttp://www.imdb.com/title/tt1538545/&quot; rel=&quot;nofollow&quot; target=&quot;_NEW&quot;&gt;\nhttp://www.imdb.com/title/tt1538545/&lt;/a&gt;\nSubtitles: EN, NL, FR\nDate: 2011.04\n\nDirector: Jan Verheyen\n\nGenres:\nComedy | Romance\n\nPlot:\nAnna breaks up with Bruno after he has cheated on her with their son Boriss schoolmarm. But her\nfar too young lover can only temporarily offer distraction... Arno and her best friend Lydias\nmarriage, on the other hand, looks like the perfect model marriage... But is it...? Between Alain\nand Fred all is roses: they are going to get married... or is the party off after all? Astrid,\nAlains sister, is sales assistant in a jewellery. Every day she hopes her Prince Charming will\nshow up. In the meantime, she fails to notice that Paul, the countrys most eligible bachelor,\nis trying to catch her eye... And then, finally, there is Annette, who discovers her true self\nand the love of her life during her search of a missing Santa Clause. Crazy about yA  is a\nfilm about men, women, fathers, mothers, sons, daughters and love. For love is all around.\nAnd we all want it so desperately. But love is like Santa Clause: you have to believe in it to\nmake it work...\n\nCast:\nCredited cast:\nVeerle Baetens \t... \tAnna Reynders \nBarbara Sarafian \t... \tLydia Leekens \nKoen De Graeve \t... \tBruno \nSven De Ridder \t... \tRudolf \nKevin Janssens \t... \tPaul Boulat \nJoke Devynck \t... \tAnnette \nKurt Rogiers \t... \tYoeri \nHerwig Ilegems \t... \tJules \nTania Kloek \t... \tCarolien \nMathias Sercu \t... \tArno Leekens \nMike Verdrengh \t... \tTv-baas \nMatteo Simoni \t... \tLucas \nJan Van Looveren \t... \tAlain Gevaert \nPeter Bulckaen \t... \tCafbaas \nMichel van Dousselaere \t... \tJean Collier\n\nStats:\nFormat                           : AVI\nFormat/Info                      : Audio Video Interleave\nFile size                        : 1.37 GiB\nDuration                         : 1h 59mn\nOverall bit rate                 : 1 632 Kbps\nWriting application              : Nandub v1.0rc2\nWriting library                  : Nandub build 1852/release\n\nVideo\nID                               : 0\nFormat                           : MPEG-4 Visual\nFormat profile                   : Advanced Simple@L5\nFormat settings, BVOP            : Yes\nFormat settings, QPel            : No\nFormat settings, GMC             : No warppoints\nFormat settings, Matrix          : Default (H.263)\nMuxing mode                      : Packed bitstream\nCodec ID                         : XVID\nCodec ID/Hint                    : XviD\nDuration                         : 1h 59mn\nBit rate                         : 1 175 Kbps\nWidth                            : 640 pixels\nHeight                           : 272 pixels\nDisplay aspect ratio             : 2.35:1\nFrame rate                       : 25.000 fps\nColor space                      : YUV\nChroma subsampling               : 4:2:0\nBit depth                        : 8 bits\nScan type                        : Progressive\nBits/(Pixel*Frame)               : 0.270\nStream size                      : 1 007 MiB (72%)\nWriting library                  : XviD 62\n\nAudio\nID                               : 1\nFormat                           : AC-3\nFormat/Info                      : Audio Coding 3\nMode extension                   : CM (complete main)\nCodec ID                         : 2000\nDuration                         : 1h 59mn\nBit rate mode                    : Constant\nBit rate                         : 448 Kbps\nChannel(s)                       : 6 channels\nChannel positions                : Front: L C R, Side: L R, LFE\nSampling rate                    : 48.0 KHz\nBit depth                        : 16 bits\nVideo delay                      : 140ms\nStream size                      : 384 MiB (27%)\nAlignment                        : Split accross interleaves\nInterleave, duration             : 40 ms (1.00 video frame)\nInterleave, preload duration     : 500 ms\n\n\n\n\nRelease notes:\nFlemish remake of the Dutch movie &quot;Alles Is Liefde&quot; (Love Is All).\n\nEnglish .srt subs included to fit on discs.\n\nenjoy!\n\nLooking for:\n75TB+ Archives\nDUTCH/FLEMiSH Archives\n                                                                                                    \nGreets: CRBS EPiSODE FiCO FLS iLS KLASSiGER LiPSYNC MADE NODLABS RUNNER SPRiNTER      \n   \n\n                                                                    ASCII DONE BY XX^NFO 2oo9","torrent":{"xt":"urn:btih:afaa1a3dd891ea6b05c454ec5a85a3bc4020d8e3","amp;dn":"Crazy.About.Ya.2010.DVDRip.XviD-EXViD","amp;tr":["udp%3A%2F%2Ftracker.openbittorrent.com%3A80","udp%3A%2F%2Fopen.demonii.com%3A1337","udp%3A%2F%2Ftracker.coppersurfer.tk%3A6969","udp%3A%2F%2Fexodus.desync.com%3A6969"],"infoHash":"afaa1a3dd891ea6b05c454ec5a85a3bc4020d8e3","infoHashBuffer":{"type":"Buffer","data":[175,170,26,61,216,145,234,107,5,196,84,236,90,133,163,188,64,32,216,227]},"announce":[],"urlList":[]}}